<?xml version="1.0" encoding="UTF-8"?><!-- Generator: Adobe Illustrator 16.0.0, SVG Export Plug-In . SVG Version: 6.00 Build 0)  --><!DOCTYPE svg PUBLIC "-//W3C//DTD SVG 1.1//EN" "http://www.w3.org/Graphics/SVG/1.1/DTD/svg11.dtd"><svg width="343" height="85" viewBox="30.02382133995 3.0326666666667 343.2723573201 85.925555555556" xmlns="http://www.w3.org/2000/svg" xmlns:xlink="http://www.w3.org/1999/xlink" version="1.1" id="Ebene_1" x="0px" y="0px" enable-background="new 0 0 403.32 90.98" xml:space="preserve">
<polygon xmlns="http://www.w3.org/2000/svg" fill="#009FE3" points="182.099,30.317 174.669,52.328 167.237,30.317 159.383,30.317 159.383,60.647 165.792,60.647   165.792,42.483 171.965,60.637 177.37,60.637 183.542,42.483 183.542,60.647 189.951,60.647 189.951,30.317 "/>
<g xmlns="http://www.w3.org/2000/svg">
	<path fill="#00303E" d="M255.569,60.653c-7.377,0-11.109-3.78-11.109-9.288v-11.75c0-5.602,3.732-9.289,11.109-9.289   c3.506,0,7.106,0.453,9.703,0.955l-0.822,5.965c-2.641-0.408-6.695-0.729-8.881-0.729c-3.414,0-4.281,1.776-4.281,4.145v9.517   c0,2.37,0.867,4.327,4.281,4.327c1.365,0,2.279-0.045,4.057-0.274V42.758h6.418v16.438   C262.721,60.153,259.075,60.653,255.569,60.653"/>
	<path fill="#009FE3" d="M154.823,30.325v21.043c0,4.6-2.869,9.291-11.431,9.291s-11.43-4.691-11.43-9.291V30.325h6.83v20.404   c0,2.459,1.185,3.871,4.6,3.871c3.418,0,4.599-1.412,4.599-3.871V30.325H154.823z"/>
	<path fill="#00303E" d="M347.813,30.325v21.043c0,4.6-2.867,9.291-11.431,9.291c-8.562,0-11.429-4.691-11.429-9.291V30.325h6.83   v20.404c0,2.459,1.183,3.871,4.599,3.871c3.414,0,4.599-1.412,4.599-3.871V30.325H347.813z"/>
	<polygon fill="#009FE3" points="213.595,30.325 213.595,35.833 201.345,35.833 201.345,42.755 213.612,42.755 213.612,48.085    201.345,48.085 201.345,55.141 213.595,55.141 213.595,60.653 194.511,60.653 194.511,30.325  "/>
	<polygon fill="#009FE3" points="127.382,30.325 127.382,35.833 115.131,35.833 115.131,42.755 127.4,42.755 127.4,48.085    115.131,48.085 115.131,55.141 127.382,55.141 127.382,60.653 108.301,60.653 108.301,30.325  "/>
	<path fill="#00303E" d="M313.56,40.201c0-2.37-1.504-3.827-4.916-3.827c-3.418,0-4.92,1.457-4.92,3.827v10.556   c0,2.367,1.502,3.824,4.92,3.824c3.412,0,4.916-1.457,4.916-3.824V40.201z M320.392,51.348c0,4.601-3.188,9.289-11.748,9.289   c-8.564,0-11.75-4.688-11.75-9.289v-11.74c0-4.602,3.186-9.291,11.75-9.291c8.56,0,11.748,4.689,11.748,9.291V51.348z"/>
	<path fill="#00303E" d="M359.208,35.833h4.234c1.916,0,2.731,0.82,2.731,2.143v2.638c0,1.323-0.821,2.143-2.731,2.143h-4.234   V35.833z M372.983,36.292v-0.07h-0.004c-0.277-3.659-2.691-5.899-8.627-5.899h-11.977v30.33h6.832V48.267h5.145   c6.33,0,8.643-2.551,8.643-6.649C372.995,41.618,372.997,36.515,372.983,36.292"/>
	<path fill="#009FE3" d="M88.845,35.833h4.235c2.142,0,3.826,0.455,3.826,2.642v1.731c0,1.685-1.046,2.549-2.869,2.549h-5.192   V35.833z M96.906,52.501c0,2.187-1.684,2.642-3.826,2.642h-4.235v-7.058h5.192c1.823,0,2.869,0.865,2.869,2.549V52.501z    M103.739,39.239v-1.674c0-4.281-2.733-7.242-8.789-7.242H82.015V44.85v15.803H94.95c6.056,0,8.789-2.961,8.789-7.239v-2.961   c0-2.824-1.96-5.01-4.462-5.603h0.017c-0.005-0.002-0.007-0.004-0.01-0.004c0.014-0.007,0.024-0.013,0.035-0.017   C101.804,44.219,103.739,42.046,103.739,39.239"/>
	<path fill="#00303E" d="M277.437,35.833h4.233c2.144,0,3.827,0.455,3.827,2.641v1.732c0,1.686-1.045,2.549-2.868,2.549h-5.192   V35.833z M277.437,55.141v-3.299v-3.758h5.192c1.823,0,2.868,0.866,2.868,2.549v10.021h6.834V50.453   c0-2.825-1.959-5.01-4.465-5.602h0.017c-0.004-0.002-0.006-0.004-0.008-0.004c0.015-0.008,0.022-0.014,0.036-0.018   c2.484-0.609,4.42-2.783,4.42-5.589v-1.674c0-4.281-2.734-7.242-8.791-7.242h-12.932v14.527v15.803h6.828V55.141z"/>
	<path fill="#009FE3" d="M225.003,35.833h4.236c2.141,0,3.827,0.455,3.827,2.641v1.732c0,1.686-1.044,2.549-2.868,2.549h-5.195   V35.833z M225.003,55.141v-3.299v-3.758h5.195c1.824,0,2.868,0.866,2.868,2.549v10.021h6.832V50.453   c0-2.825-1.958-5.01-4.464-5.602h0.018c-0.002-0.002-0.007-0.004-0.009-0.004c0.013-0.008,0.024-0.014,0.035-0.018   c2.483-0.609,4.42-2.783,4.42-5.589v-1.674c0-4.281-2.733-7.242-8.789-7.242h-12.937v14.527v15.803h6.83V55.141z"/>
	<path fill="#009FE3" d="M48.167,60.407c-7.103-1.264-12.499-7.457-12.499-14.921c0-7.467,5.396-13.658,12.499-14.922v-5.398   c-10.051,1.316-17.842,9.916-17.842,20.32c0,10.404,7.791,19.003,17.842,20.32V60.407z"/>
	<path fill="#009FE3" d="M53.511,25.165v5.398c7.103,1.264,12.5,7.456,12.5,14.922c0,7.467-5.397,13.659-12.5,14.922v5.399   c10.051-1.317,17.844-9.916,17.844-20.321C71.354,35.081,63.562,26.481,53.511,25.165"/>
	<path fill="#009FE3" d="M53.512,65.806c-0.877,0.114-1.765,0.192-2.672,0.192c-0.907,0-1.794-0.078-2.671-0.192v5.561h-3.738   l6.41,15.281l6.409-15.281h-3.738V65.806z"/>
	<path fill="#009FE3" d="M48.169,25.165c0.877-0.115,1.764-0.195,2.671-0.195c0.907,0,1.795,0.08,2.672,0.195v-5.539l2.181-2.166   V9.136V4.345L50.841,9.2l-4.853-4.855v4.791v8.324l2.181,2.166V25.165z"/>
	<path fill="#009FE3" d="M50.838,30.313c-0.913,0-1.803,0.096-2.671,0.25v29.844c0.868,0.153,1.758,0.25,2.671,0.25   c0.913,0,1.803-0.097,2.672-0.25V30.563C52.642,30.41,51.751,30.313,50.838,30.313"/>
</g>
</svg>